{
  "accessors": [
    {
      "bufferView": 2,
      "componentType": 5126,
      "count": 42956,
      "max": [
        0.2093544900417328,
        0.6711784601211548,
        0.30033811926841736
      ],
      "min": [
        -0.20915740728378296,
        0.0,
        -0.3026926815509796
      ],
      "type": "VEC3"
    },
    {
      "bufferView": 2,
      "byteOffset": 515472,
      "componentType": 5126,
      "count": 42956,
      "max": [
        0.999995231628418,
        0.9998141527175903,
        0.9999357461929321
      ],
      "min": [
        -0.9999384880065918,
        -0.9999492168426514,
        -0.9997817873954773
      ],
      "type": "VEC3"
    },
    {
      "bufferView": 1,
      "componentType": 5126,
      "count": 42956,
      "max": [
        0.9921139478683472,
        0.9999949932098389
      ],
      "min": [
        6.5777680902101565e-06,
        5.030632019042969e-05
      ],
      "type": "VEC2"
    },
    {
      "bufferView": 1,
      "byteOffset": 343648,
      "componentType": 5126,
      "count": 42956,
      "max": [
        0.9921139478683472,
        0.9999949932098389
      ],
      "min": [
        6.5777680902101565e-06,
        5.030632019042969e-05
      ],
      "type": "VEC2"
    },
    {
      "bufferView": 1,
      "byteOffset": 687296,
      "componentType": 5126,
      "count": 42956,
      "max": [
        0.9921139478683472,
        0.9999949932098389
      ],
      "min": [
        6.5777680902101565e-06,
        5.030632019042969e-05
      ],
      "type": "VEC2"
    },
    {
      "bufferView": 1,
      "byteOffset": 1030944,
      "componentType": 5126,
      "count": 42956,
      "max": [
        0.9921139478683472,
        0.9999949932098389
      ],
      "min": [
        6.5777680902101565e-06,
        5.030632019042969e-05
      ],
      "type": "VEC2"
    },
    {
      "bufferView": 1,
      "byteOffset": 1374592,
      "componentType": 5126,
      "count": 42956,
      "max": [
        0.9921139478683472,
        0.9999949932098389
      ],
      "min": [
        6.5777680902101565e-06,
        5.030632019042969e-05
      ],
      "type": "VEC2"
    },
    {
      "bufferView": 0,
      "componentType": 5125,
      "count": 225366,
      "type": "SCALAR"
    }
  ],
  "asset": {
    "extras": {
      "author": "iwamah1 (https://sketchfab.com/iwamah1)",
      "license": "CC-BY-NC-SA-4.0 (http://creativecommons.org/licenses/by-nc-sa/4.0/)",
      "source": "https://sketchfab.com/3d-models/dog-962413edbb9e4577bfb62a4062ac3347",
      "title": "Dog"
    },
    "generator": "Sketchfab-15.55.0",
    "version": "2.0"
  },
  "bufferViews": [
    {
      "buffer": 0,
      "byteLength": 901464,
      "name": "floatBufferViews",
      "target": 34963
    },
    {
      "buffer": 0,
      "byteLength": 1718240,
      "byteOffset": 901464,
      "byteStride": 8,
      "name": "floatBufferViews",
      "target": 34962
    },
    {
      "buffer": 0,
      "byteLength": 1030944,
      "byteOffset": 2619704,
      "byteStride": 12,
      "name": "floatBufferViews",
      "target": 34962
    }
  ],
  "buffers": [
    {
      "byteLength": 3650648,
      "uri": "scene.bin"
    }
  ],
  "extensionsUsed": [
    "KHR_materials_unlit"
  ],
  "images": [
    {
      "uri": "textures/material_0_baseColor.jpeg"
    }
  ],
  "materials": [
    {
      "extensions": {
        "KHR_materials_unlit": {}
      },
      "name": "material_0",
      "pbrMetallicRoughness": {
        "baseColorTexture": {
          "index": 0
        },
        "metallicFactor": 0.0
      }
    }
  ],
  "meshes": [
    {
      "name": "Object_0",
      "primitives": [
        {
          "attributes": {
            "NORMAL": 1,
            "POSITION": 0,
            "TEXCOORD_0": 2,
            "TEXCOORD_1": 3,
            "TEXCOORD_2": 4,
            "TEXCOORD_3": 5,
            "TEXCOORD_4": 6
          },
          "indices": 7,
          "material": 0,
          "mode": 4
        }
      ]
    }
  ],
  "nodes": [
    {
      "children": [
        1
      ],
      "matrix": [
        1.0,
        0.0,
        0.0,
        0.0,
        0.0,
        2.220446049250313e-16,
        -1.0,
        0.0,
        0.0,
        1.0,
        2.220446049250313e-16,
        0.0,
        0.0,
        0.0,
        0.0,
        1.0
      ],
      "name": "Sketchfab_model"
    },
    {
      "children": [
        2
      ],
      "name": "root"
    },
    {
      "children": [
        3
      ],
      "matrix": [
        1.0,
        0.0,
        0.0,
        0.0,
        0.0,
        2.220446049250313e-16,
        1.0,
        0.0,
        0.0,
        -1.0,
        2.220446049250313e-16,
        0.0,
        0.0,
        0.0,
        0.0,
        1.0
      ],
      "name": "GLTF_SceneRootNode"
    },
    {
      "children": [
        4
      ],
      "name": "_0"
    },
    {
      "mesh": 0,
      "name": "Object_4"
    }
  ],
  "samplers": [
    {
      "magFilter": 9729,
      "minFilter": 9987,
      "wrapS": 10497,
      "wrapT": 10497
    }
  ],
  "scene": 0,
  "scenes": [
    {
      "name": "Sketchfab_Scene",
      "nodes": [
        0
      ]
    }
  ],
  "textures": [
    {
      "sampler": 0,
      "source": 0
    }
  ]
}
