{
  "accessors": [
    {
      "bufferView": 2,
      "componentType": 5126,
      "count": 19863,
      "max": [
        20.990318298339844,
        88.28665924072266,
        60.37514114379883
      ],
      "min": [
        -17.30991554260254,
        -0.46256721019744873,
        -26.827232360839844
      ],
      "type": "VEC3"
    },
    {
      "bufferView": 2,
      "byteOffset": 238356,
      "componentType": 5126,
      "count": 19863,
      "max": [
        0.9999984502792358,
        0.999988853931427,
        0.9999752044677734
      ],
      "min": [
        -0.9999487996101379,
        -0.9999789595603943,
        -0.9997097253799438
      ],
      "type": "VEC3"
    },
    {
      "bufferView": 3,
      "componentType": 5126,
      "count": 19863,
      "max": [
        0.9999921321868896,
        0.9999186992645264,
        0.9997866749763489,
        1.0
      ],
      "min": [
        -0.9999999403953552,
        -0.9999345541000366,
        -0.9999871253967285,
        -1.0
      ],
      "type": "VEC4"
    },
    {
      "bufferView": 1,
      "componentType": 5126,
      "count": 19863,
      "max": [
        0.992084801197052,
        0.9885345101356506
      ],
      "min": [
        0.012619449757039547,
        0.007226407527923584
      ],
      "type": "VEC2"
    },
    {
      "bufferView": 1,
      "byteOffset": 158904,
      "componentType": 5126,
      "count": 19863,
      "max": [
        0.992084801197052,
        0.9885345101356506
      ],
      "min": [
        0.012619449757039547,
        0.007226407527923584
      ],
      "type": "VEC2"
    },
    {
      "bufferView": 1,
      "byteOffset": 317808,
      "componentType": 5126,
      "count": 19863,
      "max": [
        0.992084801197052,
        0.9885345101356506
      ],
      "min": [
        0.012619449757039547,
        0.007226407527923584
      ],
      "type": "VEC2"
    },
    {
      "bufferView": 1,
      "byteOffset": 476712,
      "componentType": 5126,
      "count": 19863,
      "max": [
        0.992084801197052,
        0.9885345101356506
      ],
      "min": [
        0.012619449757039547,
        0.007226407527923584
      ],
      "type": "VEC2"
    },
    {
      "bufferView": 1,
      "byteOffset": 635616,
      "componentType": 5126,
      "count": 19863,
      "max": [
        0.992084801197052,
        0.9885345101356506
      ],
      "min": [
        0.012619449757039547,
        0.007226407527923584
      ],
      "type": "VEC2"
    },
    {
      "bufferView": 0,
      "componentType": 5125,
      "count": 101295,
      "type": "SCALAR"
    }
  ],
  "asset": {
    "extras": {
      "author": "rk8359041 (https://sketchfab.com/rk8359041)",
      "license": "CC-BY-4.0 (http://creativecommons.org/licenses/by/4.0/)",
      "source": "https://sketchfab.com/3d-models/shiba-inu-dog-sitting-a309c6da779e4d0382e857d27a8ad35a",
      "title": "Shiba Inu Dog - Sitting"
    },
    "generator": "Sketchfab-12.68.0",
    "version": "2.0"
  },
  "bufferViews": [
    {
      "buffer": 0,
      "byteLength": 405180,
      "name": "floatBufferViews",
      "target": 34963
    },
    {
      "buffer": 0,
      "byteLength": 794520,
      "byteOffset": 405180,
      "byteStride": 8,
      "name": "floatBufferViews",
      "target": 34962
    },
    {
      "buffer": 0,
      "byteLength": 476712,
      "byteOffset": 1199700,
      "byteStride": 12,
      "name": "floatBufferViews",
      "target": 34962
    },
    {
      "buffer": 0,
      "byteLength": 317808,
      "byteOffset": 1676412,
      "byteStride": 16,
      "name": "floatBufferViews",
      "target": 34962
    }
  ],
  "buffers": [
    {
      "byteLength": 1994220,
      "uri": "scene.bin"
    }
  ],
  "extensionsRequired": [
    "KHR_materials_pbrSpecularGlossiness"
  ],
  "extensionsUsed": [
    "KHR_materials_pbrSpecularGlossiness"
  ],
  "images": [
    {
      "uri": "textures/material_0_diffuse.png"
    },
    {
      "uri": "textures/material_0_specularGlossiness.png"
    },
    {
      "uri": "textures/material_0_normal.png"
    },
    {
      "uri": "textures/material_0_occlusion.png"
    }
  ],
  "materials": [
    {
      "doubleSided": true,
      "extensions": {
        "KHR_materials_pbrSpecularGlossiness": {
          "diffuseFactor": [
            1.0,
            1.0,
            1.0,
            1.0
          ],
          "diffuseTexture": {
            "index": 0
          },
          "glossinessFactor": 1.0,
          "specularFactor": [
            1.0,
            1.0,
            1.0
          ],
          "specularGlossinessTexture": {
            "index": 1
          }
        }
      },
      "name": "material_0",
      "normalTexture": {
        "index": 2
      },
      "occlusionTexture": {
        "index": 3
      }
    }
  ],
  "meshes": [
    {
      "name": "Object_0",
      "primitives": [
        {
          "attributes": {
            "NORMAL": 1,
            "POSITION": 0,
            "TANGENT": 2,
            "TEXCOORD_0": 3,
            "TEXCOORD_1": 4,
            "TEXCOORD_2": 5,
            "TEXCOORD_3": 6,
            "TEXCOORD_4": 7
          },
          "indices": 8,
          "material": 0,
          "mode": 4
        }
      ]
    }
  ],
  "nodes": [
    {
      "children": [
        1
      ],
      "matrix": [
        1.0,
        0.0,
        0.0,
        0.0,
        0.0,
        2.220446049250313e-16,
        -1.0,
        0.0,
        0.0,
        1.0,
        2.220446049250313e-16,
        0.0,
        0.0,
        0.0,
        0.0,
        1.0
      ],
      "name": "Sketchfab_model"
    },
    {
      "children": [
        2
      ],
      "name": "root"
    },
    {
      "children": [
        3
      ],
      "matrix": [
        1.0,
        0.0,
        0.0,
        0.0,
        0.0,
        2.220446049250313e-16,
        1.0,
        0.0,
        0.0,
        -1.0,
        2.220446049250313e-16,
        0.0,
        0.0,
        0.0,
        0.0,
        1.0
      ],
      "name": "GLTF_SceneRootNode"
    },
    {
      "children": [
        4
      ],
      "matrix": [
        0.009999999776482582,
        0.0,
        0.0,
        0.0,
        0.0,
        0.009999999776482582,
        0.0,
        0.0,
        0.0,
        0.0,
        0.009999999776482582,
        0.0,
        0.0,
        0.0,
        0.0,
        1.0
      ],
      "name": "RootNode.0_0"
    },
    {
      "children": [
        5
      ],
      "name": "geo.1_1"
    },
    {
      "children": [
        6
      ],
      "name": "shiba_inu_sitting.2_2"
    },
    {
      "mesh": 0,
      "name": "Object_6"
    }
  ],
  "samplers": [
    {
      "magFilter": 9729,
      "minFilter": 9987,
      "wrapS": 10497,
      "wrapT": 10497
    }
  ],
  "scene": 0,
  "scenes": [
    {
      "name": "Sketchfab_Scene",
      "nodes": [
        0
      ]
    }
  ],
  "textures": [
    {
      "sampler": 0,
      "source": 0
    },
    {
      "sampler": 0,
      "source": 1
    },
    {
      "sampler": 0,
      "source": 2
    },
    {
      "sampler": 0,
      "source": 3
    }
  ]
}
